<svg width="96" height="93" viewBox="0 0 96 93" fill="none" xmlns="http://www.w3.org/2000/svg">
<path d="M75.86 42.21C78.03 44.37 78.03 47.87 75.87 50.04C75.87 50.04 75.87 50.04 75.86 50.05L42.65 83.26C40.48 85.43 36.97 85.43 34.81 83.26C32.65 81.09 32.64 77.58 34.81 75.42L58.57 51.66H5.53C2.47 51.66 0 49.18 0 46.13C0 43.08 2.48 40.6 5.53 40.6H58.57L34.82 16.84C32.65 14.67 32.65 11.16 34.82 9C36.99 6.84 40.5 6.83 42.66 9L75.86 42.22V42.21ZM90.39 0C87.33 0 84.86 2.48 84.86 5.53V86.7C84.86 89.76 87.34 92.23 90.39 92.23C93.44 92.23 95.92 89.75 95.92 86.7V5.53C95.92 2.47 93.44 0 90.39 0Z" fill="#E6E6E6"/>
</svg>
