<svg width="408" height="408" viewBox="0 0 408 408" fill="none" xmlns="http://www.w3.org/2000/svg">
<g clip-path="url(#clip0_15_2)">
<path d="M333.63 0H73.78C33.0324 0 0 33.0324 0 73.78V333.63C0 374.378 33.0324 407.41 73.78 407.41H333.63C374.378 407.41 407.41 374.378 407.41 333.63V73.78C407.41 33.0324 374.378 0 333.63 0Z" fill="black"/>
<path d="M321.17 104.17H86.2301C74.0025 104.17 64.0901 114.082 64.0901 126.31V281.1C64.0901 293.328 74.0025 303.24 86.2301 303.24H321.17C333.398 303.24 343.31 293.328 343.31 281.1V126.31C343.31 114.082 333.398 104.17 321.17 104.17Z" fill="#2E2E2E"/>
<path d="M277.57 199.79C279.74 201.95 279.74 205.45 277.58 207.62C277.58 207.62 277.58 207.62 277.57 207.63L244.36 240.84C242.19 243.01 238.68 243.01 236.52 240.84C234.36 238.67 234.35 235.16 236.52 233L260.28 209.24H207.24C204.18 209.24 201.71 206.76 201.71 203.71C201.71 200.66 204.19 198.18 207.24 198.18H260.28L236.53 174.42C234.36 172.25 234.36 168.74 236.53 166.58C238.7 164.42 242.21 164.41 244.37 166.58L277.57 199.8V199.79ZM292.1 157.58C289.04 157.58 286.57 160.06 286.57 163.11V244.28C286.57 247.34 289.05 249.81 292.1 249.81C295.15 249.81 297.63 247.33 297.63 244.28V163.11C297.63 160.05 295.15 157.58 292.1 157.58Z" fill="#E6E6E6"/>
</g>
<defs>
<clipPath id="clip0_15_2">
<rect width="407.41" height="407.41" fill="white"/>
</clipPath>
</defs>
</svg>